<?xml version="1.0" encoding="UTF-8"?>
<svg width="25px" height="16px" viewBox="0 0 25 16" version="1.1" xmlns="http://www.w3.org/2000/svg" xmlns:xlink="http://www.w3.org/1999/xlink">
    <!-- Generator: sketchtool 41.2 (35397) - http://www.bohemiancoding.com/sketch -->
    <title>115FA335-61A3-43CC-9027-56608DA38A23</title>
    <desc>Created with sketchtool.</desc>
    <defs></defs>
    <g id="New-Navigation" stroke="none" stroke-width="1" fill="none" fill-rule="evenodd">
        <g id="Profile-Dropdown-New--Desktop" transform="translate(-1111.000000, -72.000000)">
            <g id="header-default" transform="translate(64.000000, 64.000000)">
                <g id="Group-13" transform="translate(1046.000000, 5.000000)">
                    <g id="Group-10" transform="translate(0.000000, 3.000000)">
                        <g id="icon--all-users">
                            <rect id="bounds" x="11" y="0" width="16" height="16"></rect>
                            <path d="M26.0001325,13.9854269 L26.0001325,15.9854269 L25.0001325,15.9854269 L25.0001325,13.9854269 C25.0001325,12.3115931 23.9978476,10.8070869 22.4490623,9.89571586 C22.7362812,9.69360494 23.0049682,9.46693198 23.2520701,9.21875038 C24.922721,10.315279 26.0001325,12.042506 26.0001325,13.9854269 Z" id="right" fill="#9B9B9B"></path>
                            <path d="M14.7480629,9.21875 C13.0774114,10.315279 12,12.042506 12,13.9854269 L12,15.9854269 L13,15.9854269 L13,13.9854269 C13,12.3115931 14.0022848,10.8070869 15.5510701,9.89571586 C15.2638513,9.69360494 14.9951643,9.46693198 14.7480624,9.21875038 L14.7480629,9.21875 Z" id="left" fill="#9B9B9B"></path>
                            <path d="M19,9 C21.209139,9 23,7.209139 23,5 C23,2.790861 21.209139,1 19,1 C16.790861,1 15,2.790861 15,5 C15,7.209139 16.790861,9 19,9 Z M19,10 C16.2385763,10 14,7.76142375 14,5 C14,2.23857625 16.2385763,0 19,0 C21.7614237,0 24,2.23857625 24,5 C24,7.76142375 21.7614237,10 19,10 Z" id="head" fill="#9B9B9B"></path>
                            <rect id="bounds" x="0" y="0" width="16" height="16"></rect>
                            <path d="M15.0001325,13.9854269 L15.0001325,15.9854269 L14.0001325,15.9854269 L14.0001325,13.9854269 C14.0001325,12.3115931 12.9978476,10.8070869 11.4490623,9.89571586 C11.7362812,9.69360494 12.0049682,9.46693198 12.2520701,9.21875038 C13.922721,10.315279 15.0001325,12.042506 15.0001325,13.9854269 Z" id="right" fill="#9B9B9B"></path>
                            <path d="M3.74806285,9.21875 C2.07741142,10.315279 1,12.042506 1,13.9854269 L1,15.9854269 L2,15.9854269 L2,13.9854269 C2,12.3115931 3.00228484,10.8070869 4.55107012,9.89571586 C4.2638513,9.69360494 3.99516427,9.46693198 3.74806238,9.21875038 L3.74806285,9.21875 Z" id="left" fill="#9B9B9B"></path>
                            <path d="M8,9 C10.209139,9 12,7.209139 12,5 C12,2.790861 10.209139,1 8,1 C5.790861,1 4,2.790861 4,5 C4,7.209139 5.790861,9 8,9 Z M8,10 C5.23857625,10 3,7.76142375 3,5 C3,2.23857625 5.23857625,0 8,0 C10.7614237,0 13,2.23857625 13,5 C13,7.76142375 10.7614237,10 8,10 Z" id="head" fill="#9B9B9B"></path>
                        </g>
                    </g>
                </g>
            </g>
        </g>
    </g>
</svg>